<svg width="30" height="30" viewBox="0 0 30 30" fill="none" xmlns="http://www.w3.org/2000/svg">
<g clip-path="url(#clip0)">
<path d="M3.89248 26.2485C6.3117 28.6677 9.52815 30 12.9494 30C16.3707 30 19.5872 28.6677 22.0064 26.2485C24.4255 23.8292 25.7579 20.6128 25.7579 17.1915C25.7579 16.0593 25.6111 14.9499 25.3282 13.884C25.3316 13.884 25.3351 13.8842 25.3386 13.8842C27.6585 13.8842 29.5077 12.1296 29.5869 12.0535C29.9335 11.7197 29.9512 11.1705 29.6267 10.8151C29.5617 10.744 28.2233 9.30131 26.3361 8.84434C28.2059 6.52068 28.1873 3.32544 28.1855 3.1806C28.1791 2.69942 27.7905 2.31089 27.3093 2.3045C27.3032 2.30444 27.2918 2.30432 27.2753 2.30432C26.9245 2.30432 24.2864 2.35436 22.1285 3.799C21.8301 1.82772 20.4211 0.342778 20.353 0.272056C20.1789 0.0912944 19.9463 6.39833e-05 19.7131 6.39629e-05C19.4991 6.39442e-05 19.2846 0.0769968 19.1146 0.232329C19.0318 0.307973 17.0846 2.11261 17.0078 4.50089C17.0019 4.68435 17.0084 4.86458 17.0234 5.04195C15.7274 4.6087 14.3559 4.38318 12.9495 4.38318C9.52821 4.38318 6.31176 5.71548 3.89253 8.13477C1.47337 10.5539 0.141004 13.7704 0.141004 17.1917C0.141003 20.6128 1.47331 23.8292 3.89248 26.2485ZM27.564 11.3678C26.9809 11.7364 26.1369 12.1353 25.2489 12.1068C25.0549 12.1006 24.8648 12.0734 24.6799 12.032C24.4811 11.5803 24.2552 11.1403 24.0041 10.7134C24.4056 10.5661 24.8473 10.4689 25.3011 10.4834C26.1927 10.512 27.0071 10.963 27.564 11.3678ZM22.3876 5.8697C23.5607 4.6966 25.2779 4.29247 26.3366 4.15331C26.1973 5.21251 25.793 6.92943 24.6202 8.10236C24.1327 8.58992 23.5511 8.9443 22.9619 9.2024C22.6651 8.83191 22.347 8.47514 22.0065 8.13465C21.78 7.90818 21.5467 7.69139 21.3067 7.48414C21.5631 6.90998 21.9121 6.34513 22.3876 5.8697ZM18.7828 4.55779C18.8115 3.66558 19.2631 2.85065 19.6681 2.29378C20.0368 2.87585 20.4349 3.71784 20.4063 4.60993C20.3851 5.26964 20.1325 5.88681 19.8386 6.3889C19.5758 6.22062 19.3075 6.06236 19.0341 5.91435C18.8749 5.49786 18.7675 5.03521 18.7828 4.55779ZM12.9494 6.15904C19.0327 6.15904 23.982 11.1082 23.982 17.1916C23.982 23.2749 19.0328 28.224 12.9494 28.224C6.86605 28.224 1.91693 23.2749 1.91693 17.1915C1.91693 11.1081 6.86617 6.15904 12.9494 6.15904Z" fill="#333333"/>
<path d="M11.3299 26.1833C11.6981 26.2493 12.0683 26.0772 12.2554 25.7532L12.9495 24.551L13.6435 25.7532C13.8306 26.0772 14.2006 26.2492 14.569 26.1833C18.9239 25.4036 22.0847 21.622 22.0847 17.1913C22.0847 12.1541 17.9866 8.05599 12.9494 8.05599C12.096 8.05599 11.2504 8.17394 10.4361 8.40644C10.0977 8.50306 9.84827 8.79041 9.80028 9.13904L9.46173 11.5947L6.96686 10.9146C6.63862 10.8251 6.28799 10.9311 6.06428 11.1875C4.6132 12.8503 3.81404 14.9824 3.81404 17.1912C3.8141 21.6219 6.975 25.4036 11.3299 26.1833ZM7.0585 12.7804L9.96991 13.5739C10.2163 13.6411 10.4797 13.5987 10.6929 13.4581C10.906 13.3173 11.0482 13.0915 11.0831 12.8385L11.4773 9.97928C11.9596 9.88142 12.4528 9.83197 12.9495 9.83197C17.0074 9.83197 20.3088 13.1334 20.3088 17.1913C20.3088 20.5538 18.05 23.4521 14.8563 24.3018L13.7185 22.3311C13.5598 22.0564 13.2667 21.8871 12.9495 21.8871C12.6323 21.8871 12.3391 22.0564 12.1805 22.3311L11.0426 24.3018C7.84887 23.4521 5.59014 20.5538 5.59014 17.1913C5.59014 15.5951 6.10817 14.0487 7.0585 12.7804Z" fill="#333333"/>
</g>
<defs>
<clipPath id="clip0">
<rect width="30" height="30" fill="white" transform="translate(30 30) rotate(-180)"/>
</clipPath>
</defs>
</svg>
