<svg width="20" height="20" viewBox="0 0 20 20" fill="none" xmlns="http://www.w3.org/2000/svg">
<g clip-path="url(#clip0)">
<path d="M1.61292 10.0002H2.25808C2.25808 8.58087 3.41936 7.41958 4.83873 7.41958V6.77441C3.06451 6.77441 1.61292 8.22602 1.61292 10.0002Z" fill="black"/>
<path d="M16.7742 13.5475C15.6774 13.5475 14.7419 14.0959 14.1613 14.9023L9.19351 12.0958C9.51609 11.4507 9.67736 10.741 9.67736 9.99906C9.67736 9.25713 9.48382 8.54746 9.19351 7.9023L14.1613 5.09583C14.7419 5.93454 15.7097 6.45066 16.7742 6.45066C18.5484 6.45066 20 4.99906 20 3.22484C20 1.45066 18.5484 -0.000976562 16.7742 -0.000976562C15 -0.000976562 13.5484 1.45062 13.5484 3.22484C13.5484 3.67646 13.6451 4.12809 13.8387 4.51517L8.87093 7.32163C7.99995 5.99904 6.51609 5.16033 4.83868 5.16033C2.1613 5.16037 0 7.32167 0 9.9991C0 12.6765 2.1613 14.8378 4.83872 14.8378C6.51613 14.8378 7.99999 13.9669 8.87097 12.6765L13.8065 15.483C13.6452 15.8701 13.5161 16.3217 13.5161 16.7733C13.5161 18.5475 14.9677 19.9991 16.742 19.9991C18.5161 19.9991 19.9678 18.5475 19.9678 16.7733C20 14.9991 18.5484 13.5475 16.7742 13.5475ZM16.7742 0.644227C18.1936 0.644227 19.3548 1.80551 19.3548 3.22488C19.3548 4.64425 18.1936 5.80554 16.7742 5.80554C15.3548 5.80554 14.1935 4.64425 14.1935 3.22488C14.1935 1.80551 15.3548 0.644227 16.7742 0.644227ZM4.83872 14.1926C2.51615 14.1926 0.645163 12.3216 0.645163 9.99906C0.645163 7.67649 2.51611 5.80554 4.83872 5.80554C7.16133 5.80554 9.03228 7.67649 9.03228 9.9991C9.03228 12.3217 7.16129 14.1926 4.83872 14.1926ZM16.7742 19.3539C15.3548 19.3539 14.1935 18.1926 14.1935 16.7733C14.1935 15.3539 15.3548 14.1926 16.7742 14.1926C18.1936 14.1926 19.3548 15.3539 19.3548 16.7733C19.3548 18.1926 18.1936 19.3539 16.7742 19.3539Z" fill="black"/>
</g>
<defs>
<clipPath id="clip0">
<rect width="20" height="20" fill="white"/>
</clipPath>
</defs>
</svg>
